<svg id="Layer_1" data-name="Layer 1" xmlns="http://www.w3.org/2000/svg" viewBox="0 0 791.47 757.87"><defs><style>.cls-1{fill:#cdb752;}</style></defs><title>StardustBasicStar</title><path class="cls-1" d="M437.36,42.6l87.52,179a44,44,0,0,0,33,24.2L755,275.24c36.08,5.38,50.33,49.79,24.11,75.16L635.9,489a44,44,0,0,0-12.8,38.9L656,724.4c6,36-31.81,63.25-64,46.15l-176-93.4a44,44,0,0,0-41-.15L198.27,769.06c-32.35,16.86-70-10.7-63.68-46.63L169,526.14a44,44,0,0,0-12.51-39L14.34,347.5c-26-25.56-11.45-69.86,24.67-75l197.32-27.91a44,44,0,0,0,33.23-24L358.43,42.3C374.69,9.65,421.34,9.83,437.36,42.6Z" transform="translate(-1.12 -17.92)"/></svg>