<svg id="Layer_1" data-name="Layer 1" xmlns="http://www.w3.org/2000/svg" viewBox="0 0 506.5 435.56"><defs><style>.cls-1{fill:#2a4a6d;}.cls-2{fill:#cdb752;}.cls-3{fill:#bd6ead;}.cls-4{fill:#00b475;}.cls-5{fill:#9b9886;}.cls-6{fill:#767366;}.cls-7{fill:#e2dabf;}</style></defs><title>crown and skull</title><ellipse class="cls-1" cx="253.25" cy="217.78" rx="253.25" ry="217.78"/><path class="cls-2" d="M193.85,379.39,159.78,279.27a2.92,2.92,0,0,1,4.49-3.29l43.62,32a2.92,2.92,0,0,0,4.55-1.61l20.69-78.6a2.92,2.92,0,0,1,5.67.09L257,306.44a2.92,2.92,0,0,0,4.84,1.47l38.94-36.47a2.92,2.92,0,0,1,4.8,3L274.41,380.26a2.92,2.92,0,0,1-1.93,2c-5.16,1.6-22.6,6.71-35.23,6.71-13.14,0-35.51-6-41.43-7.67A2.91,2.91,0,0,1,193.85,379.39Z" transform="translate(-86.88 -115.84)"/><ellipse class="cls-3" cx="147.81" cy="194.96" rx="12.25" ry="22.4"/><ellipse class="cls-4" cx="278.42" cy="328.39" rx="15.54" ry="7.54" transform="matrix(0.27, -0.96, 0.96, 0.27, -200.71, 390.02)"/><ellipse class="cls-4" cx="190.96" cy="328.39" rx="7.54" ry="15.54" transform="translate(-169.76 -50.74) rotate(-15.95)"/><path class="cls-5" d="M363.5,342.39,472,299s-4.48-25.95,13.68-23.29c26.44,3.86,7.45,23.15,7.45,23.15s21-1.72,14.12,17.28c-6.48,18-30.41-2.74-30.41-2.74L370.17,355.26s3.09,42-22.2,34.79c-19.27-5.48-2.49-29.18-2.49-29.18s-29.69-7.43-17.87-24.77C339,319.41,363.5,342.39,363.5,342.39Z" transform="translate(-86.88 -115.84)"/><path class="cls-6" d="M469.93,342.39,361.46,299s4.48-25.95-13.68-23.29c-26.44,3.86-7.45,23.15-7.45,23.15s-21-1.72-14.12,17.28c6.48,18,30.41-2.74,30.41-2.74l106.63,41.85s-3.08,42,22.21,34.79c19.26-5.48,2.48-29.18,2.48-29.18s29.69-7.43,17.87-24.77C494.43,319.41,469.93,342.39,469.93,342.39Z" transform="translate(-86.88 -115.84)"/><path class="cls-7" d="M416.67,227c-42.91,0-67.13,47.74-60.57,71.77,5.45,20,37.75,46.46,37.75,46.46s-5.43,28.18,3,37a17.63,17.63,0,0,0,3.54,2.8V363.91c0-3.87,6-3.86,6,0v23.71a31.4,31.4,0,0,0,5.62,1.1V358.93c0-3.87,6-3.86,6,0V388.8a28.15,28.15,0,0,0,5.68-1,3.41,3.41,0,0,1-.07-.65V364.32c0-3.87,6-3.86,6,0V385a16.2,16.2,0,0,0,3.22-2.84c8-9.35,2.08-35.3,2.08-35.3s36.24-27.33,42.31-48.12C484.13,275.13,459.74,227,416.67,227ZM388,313.12c-9,0-15.61-7.33-16-16s7.63-16,16-16c9,0,15.61,7.33,16,16S396.41,313.12,388,313.12Zm57.66,0c-9,0-15.61-7.33-16-16s7.63-16,16-16c9,0,15.61,7.33,16,16S454.07,313.12,445.7,313.12Z" transform="translate(-86.88 -115.84)"/></svg>