<?xml version="1.0" encoding="utf-8"?>
<!-- Generator: Adobe Illustrator 23.0.6, SVG Export Plug-In . SVG Version: 6.00 Build 0)  -->
<svg version="1.1" id="Layer_1" xmlns="http://www.w3.org/2000/svg" xmlns:xlink="http://www.w3.org/1999/xlink" x="0px" y="0px"
	 viewBox="0 0 793.7 793.7" style="enable-background:new 0 0 793.7 793.7;" xml:space="preserve">
<style type="text/css">
	.st0{fill:#E2DABF;}
	.st1{fill:#00B475;}
	.st2{fill:#CDB752;}
</style>
<g>
	<path class="st0" d="M428.63,464.89h-63.55c-13.08,0-23.78-7.46-23.78-16.58l37.85-48.77c1.23-1.58,1.23-3.5,0-5.08l-37.85-48.77
		c0-9.12,10.7-16.58,23.78-16.58h63.55c13.08,0,23.78,7.46,23.78,16.58l-37.85,48.77c-1.23,1.58-1.23,3.5,0,5.08l37.85,48.77
		C452.41,457.43,441.7,464.89,428.63,464.89z"/>
	<path class="st1" d="M424.49,429.32c-1.81,0.41-11.44,3.83-19.45-1.03c-6.43-3.9-5.45-28.82-2.95-33.38
		c2.73-4.97,19.3-24.7,19.3-24.7c-6.47-0.94-17.39,6.94-23.47,8.48c-5.66,1.43-11.44-3.21-19.07-0.11c0,0,10.38,12.64,12.75,16.33
		c2.61,4.06,2.04,23.06,0.02,25.97c-2.07,2.99-4.15,4.79-6.36,5.38c-5.21,1.39-7.42-3.38-12.14-4.04l-13.64,17.13
		c0,7.53,8.83,13.69,19.62,13.69h35.47c10.79,0,19.62-6.16,19.62-13.69L424.49,429.32z"/>
	<g>
		<g>
			<path class="st2" d="M401.26,321.66c-10.27-7.98-27.91-7.98-39.66-4.61c-19.42,5.56-29.64,22.29-24.03,27.44
				c4.93,4.54,18.9-2.85,39.66,2.51c12.99,3.36,15.87,8.41,21.33,7.12C408.18,351.87,415.08,332.4,401.26,321.66z"/>
			<path class="st2" d="M392.44,321.66c10.27-7.98,27.91-7.98,39.66-4.61c19.42,5.56,29.64,22.29,24.03,27.44
				c-4.93,4.54-18.9-2.85-39.66,2.51c-12.99,3.36-15.87,8.41-21.33,7.12C385.52,351.87,378.62,332.4,392.44,321.66z"/>
		</g>
		<path class="st2" d="M451.74,342.26H341.97c-2.81,0-5.1-2.3-5.1-5.1v-17.13c0-2.81,2.3-5.1,5.1-5.1h109.77c2.81,0,5.1,2.3,5.1,5.1
			v17.13C456.84,339.96,454.54,342.26,451.74,342.26z"/>
	</g>
	<g>
		<g>
			<path class="st2" d="M401.26,472.04c-10.27,7.98-27.91,7.98-39.66,4.61c-19.42-5.56-29.64-22.29-24.03-27.44
				c4.93-4.54,18.9,2.85,39.66-2.51c12.99-3.36,15.87-8.41,21.33-7.12C408.18,441.84,415.08,461.3,401.26,472.04z"/>
			<path class="st2" d="M392.44,472.04c10.27,7.98,27.91,7.98,39.66,4.61c19.42-5.56,29.64-22.29,24.03-27.44
				c-4.93-4.54-18.9,2.85-39.66-2.51c-12.99-3.36-15.87-8.41-21.33-7.12C385.52,441.84,378.62,461.3,392.44,472.04z"/>
		</g>
		<path class="st2" d="M451.74,451.45H341.97c-2.81,0-5.1,2.3-5.1,5.1v17.13c0,2.81,2.3,5.1,5.1,5.1h109.77c2.81,0,5.1-2.3,5.1-5.1
			v-17.13C456.84,453.74,454.54,451.45,451.74,451.45z"/>
	</g>
</g>
</svg>
