<?xml version="1.0" encoding="utf-8"?>
<!-- Generator: Adobe Illustrator 23.0.6, SVG Export Plug-In . SVG Version: 6.00 Build 0)  -->
<svg version="1.1" id="Layer_1" xmlns="http://www.w3.org/2000/svg" xmlns:xlink="http://www.w3.org/1999/xlink" x="0px" y="0px"
	 viewBox="0 0 1920 1080" style="enable-background:new 0 0 1920 1080;" xml:space="preserve">
<style type="text/css">
	.st0{fill:#29496E;}
	.st1{fill:#2A4A70;}
	.st2{opacity:0.32;fill:#416299;}
	.st3{fill:none;}
	.st4{fill:#89B7E5;}
	.st5{font-family:'AmericanTypewriter';}
	.st6{font-size:53px;}
	.st7{font-size:41px;}
	.st8{font-size:34px;}
	.st9{font-size:24px;}
	.st10{fill:#CCB752;}
</style>
<rect class="st0" width="1920" height="1080"/>
<g>
	<polygon class="st1" points="451.86,-0.62 418.14,57.78 461.25,132.44 547.47,132.44 590.58,57.78 556.86,-0.62 	"/>
	<polygon class="st1" points="547.47,144.94 461.25,144.94 418.14,219.61 461.25,294.27 547.47,294.27 590.58,219.61 	"/>
	<polygon class="st1" points="289.48,-0.62 319.59,51.53 405.8,51.53 435.91,-0.62 	"/>
	<polygon class="st1" points="405.8,64.03 319.59,64.03 276.48,138.69 319.59,213.36 405.8,213.36 448.91,138.69 	"/>
	<polygon class="st1" points="734.34,-0.62 700.49,58.02 743.59,132.69 829.81,132.69 872.92,58.02 839.06,-0.62 	"/>
	<polygon class="st1" points="829.81,145.19 743.59,145.19 700.49,219.85 743.59,294.52 829.81,294.52 872.92,219.85 	"/>
	<polygon class="st1" points="688.15,64.27 601.93,64.27 558.82,138.94 601.93,213.6 688.15,213.6 731.25,138.94 	"/>
	<polygon class="st1" points="547.96,305.44 461.74,305.44 418.63,380.11 461.74,454.77 547.96,454.77 591.07,380.11 	"/>
	<polygon class="st1" points="406.3,224.53 320.08,224.53 276.97,299.19 320.08,373.86 406.3,373.86 449.4,299.19 	"/>
	<polygon class="st1" points="830.3,305.69 744.09,305.69 700.98,380.35 744.09,455.02 830.3,455.02 873.41,380.35 	"/>
	<polygon class="st1" points="688.64,224.77 602.42,224.77 559.31,299.44 602.42,374.1 688.64,374.1 731.75,299.44 	"/>
	<polygon class="st1" points="571.12,-0.62 601.93,52.76 688.15,52.76 718.96,-0.62 	"/>
</g>
<g>
	<polygon class="st1" points="-0.45,11.8 -0.45,105.42 26.58,58.61 	"/>
	<polygon class="st1" points="170.82,-0.62 136.49,58.85 179.59,133.52 265.81,133.52 308.92,58.85 274.58,-0.62 	"/>
	<polygon class="st1" points="7.2,-0.62 37.93,52.6 124.15,52.6 154.87,-0.62 	"/>
	<polygon class="st1" points="-0.45,171.45 -0.45,266.77 27.07,219.11 	"/>
	<polygon class="st1" points="266.3,144.69 180.09,144.69 136.98,219.35 180.09,294.02 266.3,294.02 309.41,219.35 	"/>
	<polygon class="st1" points="124.64,63.77 38.42,63.77 -0.45,131.1 -0.45,145.78 38.42,213.1 124.64,213.1 167.75,138.44 	"/>
</g>
<g>
	<polygon class="st1" points="123.81,225.36 37.59,225.36 -0.45,291.25 -0.45,308.8 37.59,374.69 123.81,374.69 166.92,300.02 	"/>
	<polygon class="st1" points="123.81,387.19 37.59,387.19 -0.45,453.08 -0.45,470.63 37.59,536.52 123.81,536.52 166.92,461.85 	"/>
	<polygon class="st1" points="-0.45,336.42 -0.45,425.46 25.25,380.94 	"/>
	<polygon class="st1" points="124.3,547.69 38.09,547.69 -0.45,614.43 -0.45,630.28 38.09,697.02 124.3,697.02 167.41,622.35 	"/>
	<polygon class="st1" points="-0.45,496.07 -0.45,586.81 25.75,541.44 	"/>
	<polygon class="st1" points="-0.45,175.57 -0.45,264.61 25.25,220.09 	"/>
</g>
<g>
	<polygon class="st1" points="123.81,708.36 37.59,708.36 -0.45,774.25 -0.45,791.8 37.59,857.69 123.81,857.69 166.92,783.02 	"/>
	<polygon class="st1" points="123.81,870.19 37.59,870.19 -0.45,936.08 -0.45,953.63 37.59,1019.52 123.81,1019.52 166.92,944.85 	
		"/>
	<polygon class="st1" points="-0.45,819.42 -0.45,908.46 25.25,863.94 	"/>
	<polygon class="st1" points="152.92,1080.25 124.3,1030.69 38.09,1030.69 9.47,1080.25 	"/>
	<polygon class="st1" points="-0.45,979.07 -0.45,1069.81 25.75,1024.44 	"/>
	<polygon class="st1" points="-0.45,658.57 -0.45,747.61 25.25,703.09 	"/>
</g>
<g>
	<polygon class="st1" points="407.58,385.93 321.36,385.93 278.25,460.6 321.36,535.26 407.58,535.26 450.68,460.6 	"/>
	<polygon class="st1" points="407.58,547.76 321.36,547.76 278.25,622.43 321.36,697.09 407.58,697.09 450.68,622.43 	"/>
	<polygon class="st1" points="265.91,305.01 179.7,305.01 136.59,379.68 179.7,454.35 265.91,454.35 309.02,379.68 	"/>
	<polygon class="st1" points="265.91,466.84 179.7,466.84 136.59,541.51 179.7,616.18 265.91,616.18 309.02,541.51 	"/>
	<polygon class="st1" points="689.92,386.18 603.7,386.18 560.59,460.84 603.7,535.51 689.92,535.51 733.03,460.84 	"/>
	<polygon class="st1" points="689.92,548.01 603.7,548.01 560.59,622.67 603.7,697.34 689.92,697.34 733.03,622.67 	"/>
	<polygon class="st1" points="548.25,467.09 462.04,467.09 418.93,541.76 462.04,616.42 548.25,616.42 591.36,541.76 	"/>
	<polygon class="st1" points="408.07,708.26 321.85,708.26 278.74,782.93 321.85,857.59 408.07,857.59 451.18,782.93 	"/>
	<polygon class="st1" points="266.4,627.34 180.19,627.34 137.08,702.01 180.19,776.68 266.4,776.68 309.51,702.01 	"/>
	<polygon class="st1" points="690.41,708.51 604.19,708.51 561.09,783.17 604.19,857.84 690.41,857.84 733.52,783.17 	"/>
	<polygon class="st1" points="548.75,627.59 462.53,627.59 419.42,702.26 462.53,776.92 548.75,776.92 591.85,702.26 	"/>
	<polygon class="st1" points="548.25,306.24 462.04,306.24 418.93,380.91 462.04,455.57 548.25,455.57 591.36,380.91 	"/>
</g>
<g>
	<polygon class="st1" points="407.58,872.93 321.36,872.93 278.25,947.6 321.36,1022.26 407.58,1022.26 450.68,947.6 	"/>
	<path class="st1" d="M297.9,1080.29c0.52-0.02,1.04-0.04,1.56-0.04h134.37l-26.26-45.49h-86.22l-26.26,45.49h1.19
		C296.83,1080.25,297.36,1080.27,297.9,1080.29z"/>
	<polygon class="st1" points="265.91,792.01 179.7,792.01 136.59,866.68 179.7,941.35 265.91,941.35 309.02,866.68 	"/>
	<polygon class="st1" points="279.15,1080.25 309.02,1028.51 265.91,953.84 179.7,953.84 136.59,1028.51 166.46,1080.25 	"/>
	<polygon class="st1" points="689.92,873.18 603.7,873.18 560.59,947.84 603.7,1022.51 689.92,1022.51 733.03,947.84 	"/>
	<polygon class="st1" points="716.04,1080.25 689.92,1035.01 603.7,1035.01 577.58,1080.25 	"/>
	<polygon class="st1" points="561.63,1080.25 591.36,1028.76 548.25,954.09 462.04,954.09 418.93,1028.76 448.66,1080.25 	"/>
	<polygon class="st1" points="548.25,793.24 462.04,793.24 418.93,867.91 462.04,942.58 548.25,942.58 591.36,867.91 	"/>
</g>
<g>
	<polygon class="st1" points="844.86,1080.25 874.68,1028.59 831.58,953.93 745.36,953.93 702.25,1028.59 732.07,1080.25 	"/>
	<polygon class="st1" points="689.91,873.01 603.7,873.01 560.59,947.68 603.7,1022.35 689.91,1022.35 733.02,947.68 	"/>
	<polygon class="st1" points="716.13,1080.25 689.91,1034.84 603.7,1034.84 577.48,1080.25 	"/>
	<polygon class="st1" points="1127.35,1080.25 1157.03,1028.84 1113.92,954.18 1027.7,954.18 984.59,1028.84 1014.27,1080.25 	"/>
	<polygon class="st1" points="998.33,1080.25 972.25,1035.09 886.04,1035.09 859.97,1080.25 	"/>
	<polygon class="st1" points="972.25,874.24 886.04,874.24 842.93,948.91 886.04,1023.58 972.25,1023.58 1015.36,948.91 	"/>
</g>
<g>
	<polygon class="st1" points="1408.86,1080.25 1438.68,1028.59 1395.58,953.93 1309.36,953.93 1266.25,1028.59 1296.07,1080.25 	"/>
	<polygon class="st1" points="1253.91,873.01 1167.7,873.01 1124.59,947.68 1167.7,1022.35 1253.91,1022.35 1297.02,947.68 	"/>
	<polygon class="st1" points="1280.13,1080.25 1253.91,1034.84 1167.7,1034.84 1141.48,1080.25 	"/>
	<polygon class="st1" points="1691.35,1080.25 1721.03,1028.84 1677.92,954.18 1591.7,954.18 1548.59,1028.84 1578.27,1080.25 	"/>
	<polygon class="st1" points="1562.33,1080.25 1536.25,1035.09 1450.04,1035.09 1423.97,1080.25 	"/>
	<polygon class="st1" points="1536.25,874.24 1450.04,874.24 1406.93,948.91 1450.04,1023.58 1536.25,1023.58 1579.36,948.91 	"/>
</g>
<g>
	<polygon class="st1" points="1920.64,469.93 1873.36,469.93 1830.25,544.6 1873.36,619.26 1920.64,619.26 	"/>
	<polygon class="st1" points="1920.64,631.76 1873.36,631.76 1830.25,706.43 1873.36,781.09 1920.64,781.09 	"/>
	<polygon class="st1" points="1817.91,389.01 1731.7,389.01 1688.59,463.68 1731.7,538.35 1817.91,538.35 1861.02,463.68 	"/>
	<polygon class="st1" points="1817.91,550.84 1731.7,550.84 1688.59,625.51 1731.7,700.18 1817.91,700.18 1861.02,625.51 	"/>
	<polygon class="st1" points="1920.64,792.26 1873.85,792.26 1830.74,866.93 1873.85,941.59 1920.64,941.59 	"/>
	<polygon class="st1" points="1818.4,711.34 1732.19,711.34 1689.08,786.01 1732.19,860.68 1818.4,860.68 1861.51,786.01 	"/>
</g>
<g>
	<polygon class="st1" points="1920.64,954.93 1873.36,954.93 1830.25,1029.59 1859.5,1080.25 1920.64,1080.25 	"/>
	<polygon class="st1" points="1817.91,874.01 1731.7,874.01 1688.59,948.68 1731.7,1023.35 1817.91,1023.35 1861.02,948.68 	"/>
	<polygon class="st1" points="1843.55,1080.25 1817.91,1035.84 1731.7,1035.84 1706.06,1080.25 	"/>
</g>
<g>
	<polygon class="st1" points="832.07,469.5 745.86,469.5 702.75,544.17 745.86,618.83 832.07,618.83 875.18,544.17 	"/>
	<polygon class="st1" points="832.07,631.33 745.86,631.33 702.75,706 745.86,780.66 832.07,780.66 875.18,706 	"/>
	<polygon class="st1" points="690.41,388.59 604.19,388.59 561.09,463.25 604.19,537.92 690.41,537.92 733.52,463.25 	"/>
	<polygon class="st1" points="690.41,550.42 604.19,550.42 561.09,625.08 604.19,699.75 690.41,699.75 733.52,625.08 	"/>
	<polygon class="st1" points="1114.42,469.75 1028.2,469.75 985.09,544.41 1028.2,619.08 1114.42,619.08 1157.52,544.41 	"/>
	<polygon class="st1" points="1114.42,631.58 1028.2,631.58 985.09,706.24 1028.2,780.91 1114.42,780.91 1157.52,706.24 	"/>
	<polygon class="st1" points="972.75,550.66 886.54,550.66 843.43,625.33 886.54,700 972.75,700 1015.86,625.33 	"/>
	<polygon class="st1" points="832.57,791.83 746.35,791.83 703.24,866.5 746.35,941.16 832.57,941.16 875.67,866.5 	"/>
	<polygon class="st1" points="690.9,710.92 604.69,710.92 561.58,785.58 604.69,860.25 690.9,860.25 734.01,785.58 	"/>
	<polygon class="st1" points="1114.91,792.08 1028.69,792.08 985.58,866.74 1028.69,941.41 1114.91,941.41 1158.02,866.74 	"/>
	<polygon class="st1" points="973.24,711.16 887.03,711.16 843.92,785.83 887.03,860.49 973.24,860.49 1016.35,785.83 	"/>
	<polygon class="st1" points="972.75,389.82 886.54,389.82 843.43,464.48 886.54,539.15 972.75,539.15 1015.86,464.48 	"/>
</g>
<g>
	<polygon class="st1" points="1018.13,-0.62 982.61,60.91 1025.71,135.58 1111.93,135.58 1155.04,60.91 1119.52,-0.62 	"/>
	<polygon class="st1" points="1111.93,148.08 1025.71,148.08 982.61,222.74 1025.71,297.41 1111.93,297.41 1155.04,222.74 	"/>
	<polygon class="st1" points="852.14,-0.62 884.05,54.66 970.27,54.66 1002.18,-0.62 	"/>
	<polygon class="st1" points="970.27,67.16 884.05,67.16 840.94,141.83 884.05,216.49 970.27,216.49 1013.38,141.83 	"/>
	<polygon class="st1" points="1401.72,-0.62 1300.61,-0.62 1264.95,61.16 1308.06,135.82 1394.27,135.82 1437.38,61.16 	"/>
	<polygon class="st1" points="1394.27,148.32 1308.06,148.32 1264.95,222.99 1308.06,297.65 1394.27,297.65 1437.38,222.99 	"/>
	<polygon class="st1" points="1252.61,67.41 1166.39,67.41 1123.29,142.07 1166.39,216.74 1252.61,216.74 1295.72,142.07 	"/>
	<polygon class="st1" points="1112.42,308.57 1026.21,308.57 983.1,383.24 1026.21,457.91 1112.42,457.91 1155.53,383.24 	"/>
	<polygon class="st1" points="970.76,227.66 884.54,227.66 841.43,302.33 884.54,376.99 970.76,376.99 1013.87,302.33 	"/>
	<polygon class="st1" points="1394.76,308.82 1308.55,308.82 1265.44,383.49 1308.55,458.15 1394.76,458.15 1437.87,383.49 	"/>
	<polygon class="st1" points="1253.1,227.91 1166.89,227.91 1123.78,302.57 1166.89,377.24 1253.1,377.24 1296.21,302.57 	"/>
	<polygon class="st1" points="1133.77,-0.62 1166.39,55.89 1252.61,55.89 1285.23,-0.62 	"/>
</g>
<g>
	<polygon class="st1" points="1583.7,-0.62 1547.61,61.91 1590.71,136.58 1676.93,136.58 1720.04,61.91 1683.94,-0.62 	"/>
	<polygon class="st1" points="1676.93,149.08 1590.71,149.08 1547.61,223.74 1590.71,298.41 1676.93,298.41 1720.04,223.74 	"/>
	<polygon class="st1" points="1416.56,-0.62 1449.05,55.66 1535.27,55.66 1567.76,-0.62 	"/>
	<polygon class="st1" points="1535.27,68.16 1449.05,68.16 1405.94,142.83 1449.05,217.49 1535.27,217.49 1578.38,142.83 	"/>
	<polygon class="st1" points="1866.19,-0.62 1829.95,62.16 1873.06,136.82 1920.64,136.82 1920.64,-0.62 	"/>
	<polygon class="st1" points="1920.64,149.32 1873.06,149.32 1829.95,223.99 1873.06,298.65 1920.64,298.65 	"/>
	<polygon class="st1" points="1817.61,68.41 1731.39,68.41 1688.29,143.07 1731.39,217.74 1817.61,217.74 1860.72,143.07 	"/>
	<polygon class="st1" points="1677.42,309.57 1591.21,309.57 1548.1,384.24 1591.21,458.91 1677.42,458.91 1720.53,384.24 	"/>
	<polygon class="st1" points="1535.76,228.66 1449.54,228.66 1406.43,303.33 1449.54,377.99 1535.76,377.99 1578.87,303.33 	"/>
	<polygon class="st1" points="1920.64,309.82 1873.55,309.82 1830.44,384.49 1873.55,459.15 1920.64,459.15 	"/>
	<polygon class="st1" points="1818.1,228.91 1731.89,228.91 1688.78,303.57 1731.89,378.24 1818.1,378.24 1861.21,303.57 	"/>
	<polygon class="st1" points="1698.19,-0.62 1731.39,56.89 1817.61,56.89 1850.81,-0.62 	"/>
</g>
<g>
	<polygon class="st1" points="1394.93,470.24 1308.71,470.24 1265.61,544.91 1308.71,619.58 1394.93,619.58 1438.04,544.91 	"/>
	<polygon class="st1" points="1394.93,632.08 1308.71,632.08 1265.61,706.74 1308.71,781.41 1394.93,781.41 1438.04,706.74 	"/>
	<polygon class="st1" points="1253.27,389.33 1167.05,389.33 1123.94,463.99 1167.05,538.66 1253.27,538.66 1296.38,463.99 	"/>
	<polygon class="st1" points="1253.27,551.16 1167.05,551.16 1123.94,625.83 1167.05,700.49 1253.27,700.49 1296.38,625.83 	"/>
	<polygon class="st1" points="1677.27,470.49 1591.06,470.49 1547.95,545.16 1591.06,619.82 1677.27,619.82 1720.38,545.16 	"/>
	<polygon class="st1" points="1677.27,632.32 1591.06,632.32 1547.95,706.99 1591.06,781.65 1677.27,781.65 1720.38,706.99 	"/>
	<polygon class="st1" points="1535.61,551.41 1449.39,551.41 1406.29,626.07 1449.39,700.74 1535.61,700.74 1578.72,626.07 	"/>
	<polygon class="st1" points="1395.42,792.57 1309.21,792.57 1266.1,867.24 1309.21,941.91 1395.42,941.91 1438.53,867.24 	"/>
	<polygon class="st1" points="1253.76,711.66 1167.54,711.66 1124.43,786.33 1167.54,860.99 1253.76,860.99 1296.87,786.33 	"/>
	<polygon class="st1" points="1677.76,792.82 1591.55,792.82 1548.44,867.49 1591.55,942.15 1677.76,942.15 1720.87,867.49 	"/>
	<polygon class="st1" points="1536.1,711.91 1449.89,711.91 1406.78,786.57 1449.89,861.24 1536.1,861.24 1579.21,786.57 	"/>
	<polygon class="st1" points="1535.61,390.56 1449.39,390.56 1406.29,465.22 1449.39,539.89 1535.61,539.89 1578.72,465.22 	"/>
</g>
<rect y="169" class="st2" width="1920" height="699"/>
<rect x="647.48" y="225" class="st3" width="625.61" height="58"/>
<text transform="matrix(1 0 0 1 704.8291 261.0396)" class="st4 st5 st6">Welcome, Earthling.</text>
<path class="st1" d="M1150,367H770c-6.6,0-12-5.4-12-12v-21c0-6.6,5.4-12,12-12h380c6.6,0,12,5.4,12,12v21
	C1162,361.6,1156.6,367,1150,367z"/>
<rect x="758" y="330.55" class="st3" width="404" height="28.45"/>
<text transform="matrix(1 0 0 1 860.3711 358.4326)" class="st4 st5 st7">Nickname</text>
<path class="st4" d="M938,735H662c-6.6,0-12-5.4-12-12v-21c0-6.6,5.4-12,12-12h276c6.6,0,12,5.4,12,12v21
	C950,729.6,944.6,735,938,735z"/>
<rect x="664" y="700" class="st3" width="271" height="26"/>
<text transform="matrix(1 0 0 1 682.6602 723.1196)" class="st1 st5 st8">PLAY ONLINE</text>
<path class="st4" d="M1253,734H977c-6.6,0-12-5.4-12-12v-21c0-6.6,5.4-12,12-12h276c6.6,0,12,5.4,12,12v21
	C1265,728.6,1259.6,734,1253,734z"/>
<rect x="979" y="699" class="st3" width="271" height="26"/>
<text transform="matrix(1 0 0 1 1023.9453 722.1196)"><tspan x="0" y="0" class="st1 st5 st8">PLAY </tspan><tspan x="101.93" y="0" class="st1 st5 st9">VS</tspan><tspan x="134.26" y="0" class="st1 st5 st8"> AI</tspan></text>
<path class="st4" d="M1021,803H898c-6.6,0-12-5.4-12-12v-21c0-6.6,5.4-12,12-12h123c6.6,0,12,5.4,12,12v21
	C1033,797.6,1027.6,803,1021,803z"/>
<rect x="898" y="767" class="st3" width="124" height="27.55"/>
<text transform="matrix(1 0 0 1 902.2344 790.1196)" class="st1 st5 st8">LOG IN</text>
<path class="st4" d="M1085,666H835c-6.6,0-12-5.4-12-12v-21c0-6.6,5.4-12,12-12h250c6.6,0,12,5.4,12,12v21
	C1097,660.6,1091.6,666,1085,666z"/>
<rect x="818" y="632" class="st3" width="289" height="24"/>
<text transform="matrix(1 0 0 1 841.6147 655.1196)" class="st1 st5 st8">CHANGE SKIN</text>
<path class="st10" d="M969.95,401.91l21.76,44.51c1.58,3.24,4.65,5.49,8.22,6.02l49.01,7.31c8.97,1.34,12.51,12.38,5.99,18.69
	l-35.61,34.45c-2.59,2.5-3.78,6.12-3.18,9.67l8.19,48.87c1.5,8.94-7.91,15.73-15.92,11.48l-43.77-23.22
	c-3.18-1.69-6.99-1.7-10.18-0.04l-43.94,22.89c-8.04,4.19-17.4-2.66-15.83-11.6l8.56-48.8c0.62-3.55-0.54-7.17-3.11-9.7
	l-35.35-34.72c-6.47-6.36-2.85-17.37,6.14-18.64l49.06-6.94c3.57-0.5,6.66-2.73,8.26-5.95l22.1-44.35
	C954.37,393.71,965.96,393.76,969.95,401.91z"/>
</svg>
